<?xml version="1.0" encoding="utf-8"?>
<!-- Generator: Adobe Illustrator 19.2.1, SVG Export Plug-In . SVG Version: 6.00 Build 0)  -->
<svg version="1.1" id="layer" xmlns="http://www.w3.org/2000/svg" xmlns:xlink="http://www.w3.org/1999/xlink" x="0px" y="0px"
	 viewBox="0 0 652 652" style="enable-background:new 0 0 652 652;" xml:space="preserve">
<style type="text/css">
	.st0{fill:#00853E;}
</style>
<path class="st0" d="M252.4,407.6c-1.9-1-5.2,1-5.2,1c-1-4.8-6.2-11.9-6.2-11.9S252,406.6,252.4,407.6c0-0.5,3.8-7.6-3.3-14.3
	c-10.5-10-30.5-28.1-30.5-28.1c1.4,4.8,9.5,19.1,5.2,46.2l10.5,1.9l1.4,1.9c0,0,11.9,1.4,13.8,3.3c0,0,4.3,2.9-0.5,6.7
	c0,0,6.7-1.4,10.5-5.2c0,0,3.3-2.9-0.5-7.1L252.4,407.6 M196.7,343.7L47.5,205c-7.1-6.7-4.3-15.7-4.3-15.7L31.3,216
	c-3.3,8.6,1.4,13.8,5.2,16.7c3.3,2.9,118.7,96.3,118.7,96.3v3.8L40.8,244.6c-5.7-4.3-4.8-11.4-4.8-11.4l-8.1,17.2
	c-3.8,9.5,5.7,15.7,10,18.6c3.8,2.9,117.7,82.5,117.7,82.5l1,4.8c0,0-110.6-73.9-114.9-76.3c-4.8-2.9-4.8-10-4.8-10L28.9,287
	c-3.3,7.1,6.2,11.9,10.5,14.8c2.9,1.9,64.8,38.6,115.8,69.1H88.9c-9.5,0-12.9-2.9-12.9-2.9l9.1,8.1c1.4,1.4,5.7,6.2,11.4,6.2
	c4.3,0,24.3,0,24.3,0l4.8,1.9l-21.4,1.4c-4.3,0-5.2,0.5-11-2.4l9.5,9.1c2.9,2.4,4.8,4.3,9.5,4.3c4.8-0.5,31.5-4.8,31.5-4.8l4.3,1.9
	l-28.1,6.2c-6.2,1.4-11-1.9-11-1.9s5.2,5.2,8.6,8.6c3.8,3.3,7.1,5.7,18.6,2.4c4.8-1.4,27.2-8.6,27.2-8.6l14.8,6.2
	c14.8,20.5,33.4,31.5,33.4,31.5c-3.3,4.3-0.5,9.1-0.5,9.1c2.9-6.2,10-9.5,15.3-8.6c4.3,0.5,3.3,6.2,3.3,5.7
	c2.9-3.3,5.2-7.6,2.4-11.4c-3.3-4.3-11.9-0.5-11.9-0.5l-8.6-15.3l11.4-6.7C228.6,370.9,196.7,343.7,196.7,343.7 M188.6,286
	c-1.9-1.9-71-79.6-71-79.6c-6.2-6.7-3.8-11.9-3.8-12.4l-8.1,18.1c-1.9,4.8,1.4,8.1,3.8,11c2.9,2.9,75.3,78.6,75.3,78.6l-0.5,4.3
	l-68.6-68.6c-5.7-5.7-3.8-10-3.8-10.5l-7.1,16.7c-1.4,5.2,3.8,8.6,7.1,11.9c3.8,3.8,80.5,75.3,86.7,81c13.3,12.4,20,28.1,20,28.1
	C226.2,325.6,196.2,295.1,188.6,286"/>
<path class="st0" d="M503.6,214.5l-12.9,35.7h19.5l5.2-13.8h19.1v98.2h-11l-8.1,21.9h54.8l8.1-21.9h-15.3v-98.2h22.9v13.8h13.3
	l13.3-36.2L503.6,214.5 M283.9,214.5l-8.1,21.9h13.8v64.3c0,11.9-1.9,18.6-8.1,24.3c-4.3,4.8-12.4,7.6-20,7.6
	c-9.5,0-18.1-3.3-23.4-8.6c-5.2-5.2-8.1-14.3-8.1-27.2v-82.5h-40l-8.1,21.9H199v61c0,57.7,44.8,62,58.6,62
	c35.7,0,58.6-22.9,58.6-58.6V236h10l8.1-21.9L283.9,214.5 M478.4,236.5v120.1h-16.7c0,0-78.2-82.5-83.4-87.7c0,11.9,0,65.8,0,65.8
	h15.3l-8.1,22.4h-50.5l8.1-22.4h8.6v-98.2h-18.1l8.1-21.9h31c0,0,59.6,62.4,80.5,84.4c0-6.7,0-62,0-62h-15.3l8.1-22.4h51.5
	l-8.1,22.4L478.4,236.5 M619.9,213.1L619.9,213.1c-4.3,0-7.1,3.3-7.1,7.6c0,4.3,3.3,7.6,7.1,7.6c3.8,0,7.1-3.3,7.1-7.6
	C627.1,216.5,623.7,213.1,619.9,213.1z M619.9,226.9c-3.3,0-5.7-2.9-5.7-6.7c0-3.3,2.9-6.2,5.7-6.2l0,0c3.3,0,5.7,2.9,5.7,6.2
	C625.6,224.1,623.2,226.9,619.9,226.9z M621.3,220.7L621.3,220.7c1-0.5,1.4-1,1.4-1.9s-0.5-1.4-1-1.9s-1.4-0.5-2.4-0.5s-1.4,0-2.4,0
	v8.6h1.4v-3.8h1c1,0,1.4,0.5,1.9,1.4s0.5,1.9,0.5,2.4h1.4c0,0-0.5-1-0.5-1.9C622.3,221.7,621.8,221.2,621.3,220.7z M619.4,220.3h-1
	v-2.9c0.5,0,0.5,0,1,0c1.4,0,1.9,0.5,1.9,1.4S620.4,220.3,619.4,220.3z M318.7,422.4c-4.3,0-8.6-1.4-10-3.8
	c-1.4-1.9-1.4-3.8-1.4-12.4V400c0-1-1.4-1-1.9-1h-0.5l0.5-1.4l0,0c0.5,0,3.8,0,4.8,0c1.4,0,4.3,0,4.3,0l-0.5,1.4c-1,0-2.4,0-2.4,1.4
	v11c0,3.3,0,8.6,6.7,8.6c4.8,0,7.1-2.4,7.1-7.6V400c0-1-1.9-1-1.9-1l0.5-1.4l0,0c0.5,0,1.9,0,3.3,0s3.3,0,3.3,0l-0.5,1.4h-0.5
	c-0.5,0-1.4,0-1.4,1.4v11c0,1.4-0.5,5.7-2.4,8.1C324.4,421.4,321.1,422.4,318.7,422.4 M355.9,421.9c-3.3-3.8-5.7-5.7-7.1-7.6
	c-1-1-1.4-1.4-2.4-2.4l-2.4-2.9c-2.4-2.9-4.3-4.8-5.2-5.7c0,1.9,0,8.6,0,8.6v9.5h-2.4H333l0.5-1.4c1,0,1.9,0,1.9-1.4v-1
	c0-1,0-2.4,0-5.2V400c0-1-1-1-1.9-1l0.5-1.4l0,0c0.5,0,1,0,1.9,0c1,0,1.9,0,1.9,0c7.1,8.1,7.1,8.1,7.1,8.1s7.6,8.1,9.5,10
	c0-3.3,0-14.3,0-14.3v-3.8l0,0c0.5,0,1.4,0,2.9,0c1.4,0,3.3,0,3.3,0v1.4c-0.5,0-2.4,0-2.4,1c0,0-0.5,10-0.5,12.9c0,2.9,0,7.1,0,9.1
	H355.9L355.9,421.9 M365.9,420L365.9,420c1,0,1.9,0,1.9-1v-19.5c0-1-1.4-1-2.4-1c-0.5,0-0.5,0-0.5,0l0.5-1.4l0,0c0.5,0,2.4,0,3.8,0
	c1.9,0,4.3,0,4.3,0l-0.5,1.4c-1,0-1.4,0-1.4,1V419c0,0.5,0.5,0.5,1,1c0.5,0,1,0,1.4,0h0.5l-0.5,1.4l0,0c-0.5,0-1.9,0-3.8,0
	c-2.4,0-4.3,0-4.3,0l0,0V420 M387.8,421.9c0,0-2.4-5.7-5.2-12.4c-1.9-3.8-3.8-7.6-4.8-9.5l-0.5-0.5c-0.5-1-1.4-1-1.9-1s-0.5,0-0.5,0
	l0.5-1.4l0,0c0.5,0,1.4,0,2.4,0c1.4,0,2.4,0,2.4,0l7.1,14.8c1,2.9,1.4,3.8,1.9,5.2c0-1,3.3-8.6,3.3-8.6s3.3-7.1,3.8-8.6
	c0.5-1.4,1-2.9,1-2.9l0,0c0.5,0,1.4,0,2.4,0c1,0,2.4,0,2.4,0l0.5,1.9c-0.5,0-1.4,0-2.9,2.4c-1,1.4-3.3,7.1-3.3,7.1l-5.7,13.3H387.8
	 M450.2,422.4c-3.8,0-6.7-0.5-10.5-4.3c-4.3-4.8-9.1-10-9.1-10.5c0,1,0,8.6,0,10.5c0,1.9,0,3.3,0,3.3l0,0c-0.5,0-1,0-2.4,0
	c-1.4,0-3.8,0-3.8,0l0.5-1.4c1,0,1.4,0,1.9-0.5V419v-19.5c0-1-1.4-1-1.9-1l0.5-1.4l0,0c0.5,0,2.4,0,4.3,0c1,0,1,0,1.9,0
	c1,0,1.4,0,3.8,0c2.4,0,6.7,1,6.7,4.3c0,3.8-3.3,5.7-6.7,6.7c10,10.5,12.4,11.9,16.7,11.9c0.5,0,1,0,1,0c1.9-0.5,5.2-1.9,5.2-5.2
	c0-1.9,0-4.3-5.2-4.3c-4.3-0.5-6.7-2.4-6.7-5.7c0-1.9,0.5-3.8,1.9-5.2c1.9-1.9,4.3-2.9,7.1-2.9c3.8,0,5.2,1.9,5.2,1.9l-0.5,4.3h-1.4
	l-0.5-1.9c0-0.5-1.9-1.4-4.3-1.4c-2.9,0-4.3,1.4-4.3,3.8c0,2.4,1.9,3.8,5.7,4.3c4.3,0.5,6.2,2.4,6.2,5.7
	C461.7,418.1,455.9,422.4,450.2,422.4 M430.7,399.5c0,0,0,7.6,0,8.1c4.3-0.5,6.7-1.9,6.7-5.2c0-2.9-2.9-3.3-4.8-3.3
	C431.2,399,431.2,399.5,430.7,399.5 M466.4,420.4L466.4,420.4c1,0,1.9,0,1.9-1V400c0-1-1-1-1.9-1c-0.5,0-0.5,0-0.5,0l0.5-1.4l0,0
	c0.5,0,1.9,0,3.8,0c1.9,0,4.3,0,4.3,0l-0.5,1.4c-1,0-1.9,0-1.9,1v19.5c0,0.5,0.5,0.5,0.5,1c0.5,0,1,0,1.4,0h0.5l-0.5,1.4l0,0
	c-0.5,0-1.9,0-3.8,0c-2.4,0-4.3,0-4.3,0l0,0L466.4,420.4 M506.9,421.9h-4.3l0.5-1.4c0,0,1.9,0,1.9-1v-6.7c0-1.4-1-2.4-2.4-4.8
	c-0.5-1-1-1.4-1.9-2.4c-3.8-5.7-4.3-5.7-6.7-5.7s-4.8,0-5.2,0v19.5c0,0.5,0.5,0.5,0.5,1c0.5,0,1,0,1.4,0h0.5l-0.5,1.4l0,0
	c-0.5,0-1.9,0-3.8,0c-2.4,0-4.3,0-4.3,0l0.5-1.4h1c0.5,0,1.4,0,1.4-1v-20l0,0c0,0-0.5,0-2.9,0c-1.4,0-3.3,0-3.3,0
	c-1.4,0-1.9,1.9-1.9,1.9l-1-0.5l1.4-3.8h9.5h9.5c3.8,0,4.3,1.4,6.7,4.8c0.5,0.5,1,1.4,1.4,2.4c1,1.4,1.4,2.4,1.9,3.3l1,1.9
	c0.5-1,3.3-5.7,5.2-8.6c1-1.4,1.9-2.9,1.9-2.9c0.5-0.5,0.5-1,0.5-1l0,0c0,0,1,0,1.4,0c1,0,2.9,0,2.9,0l0,0v0.5c-0.5,0-1.9,1-2.9,2.4
	c-0.5,0.5-0.5,1-1,1.4c-2.4,2.9-7.1,9.5-7.1,11.9v6.2c0,0.5,0.5,0.5,0.5,1c0.5,0,1,0,1.4,0c0.5,0,0.5,0,0.5,0l-0.5,1.4H506.9
	 M416.9,421.9c-2.9,0-6.2,0-8.6,0c-1,0-1.9,0-2.4,0s-1,0-1.4,0H404l0.5-1.4c0,0,1.9,0,1.9-1.9c0-0.5,0-1.4,0-2.4c0-2.4,0-5.7,0-8.6
	c0-2.4,0-4.8,0-6.7v-1.4c0-1-1-1-1.4-1c-0.5,0-0.5,0-0.5,0l0.5-1.4l0,0c0.5,0,1.9,0,3.3,0c2.9,0,8.6,0,8.6,0c1.9,0,2.9,0.5,2.9,0.5
	s0,1.4,0,2.4v1l-1.4,1c0-1.4-0.5-2.4-3.8-2.4h-3.8c0,0,0,0.5,0,1.9v6.2h0.5h3.8h4.3l-1,2.9l0,0c-0.5,0-1.4,0-3.3,0
	c-1.4,0-2.4,0-3.3,0h-1v4.8c0,1.9,0,3.3,0,4.3h1c1,0,2.4,0,3.3,0c1.4,0,2.9,0,3.8,0v-3.3l1.9,1.4v2.9c0,1,0,1.4,0,1.4h-0.5
	L416.9,421.9 M265.3,459.5c-7.1,0-11.9-4.8-11.9-11.9c0-5.2,2.4-9.5,6.7-11.4c2.4-1,4.8-1.4,7.1-1.4c7.1,0,11.4,4.3,11.4,11
	C279.6,453.3,273.4,459.5,265.3,459.5 M266.3,436.7c-3.8,0-6.7,1.9-8.1,4.8c-0.5,1.4-1,3.3-1,5.2c0,4.3,1.4,7.1,4.3,9.1
	c1.4,1,3.3,1.4,5.2,1.4c5.2,0,9.1-4.3,9.1-10.5c0-4.3-1.4-7.1-4.8-8.6C270.1,437.1,268.2,436.7,266.3,436.7 M283.9,457.1
	c1,0,1.9-0.5,1.9-1.9v-19.1c0-1-1.4-1-1.9-1s-0.5,0-0.5,0l0.5-1.4l0,0c0.5,0,1.4,0,3.8,0c2.9,0,8.6,0,8.6,0c1.9,0,2.9,0.5,2.9,0.5
	s0,1.4,0,2.4v1l-1.4,1c0-1-0.5-2.4-3.8-2.4h-3.8c0,0,0,0.5,0,1.9c0,0,0,5.7,0,6.2h8.6l-1,2.4h-7.6v9.5c0,0.5,0.5,0.5,0.5,1
	c0.5,0,1,0,1.4,0s0.5,0,0.5,0l-0.5,1.4l0,0c-0.5,0-1.4,0-3.8,0c-2.4,0-4.8,0-4.8,0l0,0L283.9,457.1 M336.3,458.6
	c-3.3-3.8-5.2-5.7-7.1-7.6c-1-1-1.4-1.4-2.4-2.4l-1.9-1.9c-2.9-2.9-4.8-5.2-5.7-6.2c0,1.9,0,8.6,0,8.6v9.5c0,0,0,0-0.5,0s-1,0-1.9,0
	c-1.4,0-3.3,0-3.3,0l0.5-1.4c1,0,1.9,0,1.9-1.4v-1c0-1,0-2.4,0-5.2c0,0,0-10.5,0-12.4c0-1-1-1-2.9-1h-0.5c0,0,0,0,0.5-1.4l0,0
	c0.5,0,2.4,0,2.9,0c1,0,1.9,0,1.9,0c7.1,8.1,7.1,8.1,7.1,8.1s7.6,8.1,9.5,10v-14.3v-3.8l0,0c0.5,0,1.4,0,2.9,0c1,0,2.9,0,2.9,0
	l-0.5,1.4c-0.5,0-1.9,0-1.9,1c0,0-0.5,10-0.5,12.9c0,2.9,0,7.1,0,9.1h-1V458.6 M396.4,461c-1-0.5-2.4-1.9-3.8-3.8
	c-0.5-1-1.4-1.4-1.9-2.4c-4.8-5.2-9.1-10-9.1-10.5c0,1,0,8.6,0,10.5c0,1.9,0,3.3,0,3.3l0,0c-0.5,0-1.4,0-2.4,0c-1.4,0-3.8,0-3.8,0
	l0.5-1.4c1,0,1.4,0,1.9-0.5v-0.5l0.5-11.4c0-2.9,0-5.2-0.5-6.7c0-0.5,0-1,0-1c0-1-1.4-1-1.9-1l0.5-1.4l0,0c0.5,0,2.4,0,4.3,0
	c1,0,1,0,1.9,0c1,0,1.4,0,3.3,0c2.4,0,6.7,1,6.7,4.3c0,3.8-2.9,5.2-5.7,6.2c-0.5,0-1,0.5-1,0.5c0.5,0.5,3.3,2.9,5.7,5.7
	c2.4,2.4,4.8,5.2,7.1,7.1c1.4,1.4,1.9,1.9,3.3,2.9l0,0H396.4 M383,436.2c-1.4,0-1.4,0-1.4,0v8.1c0.5,0,2.4,0,3.8-1
	c1.9-1,2.9-2.4,2.9-4.3C387.8,437.1,386.4,436.2,383,436.2 M356.3,459.1c-7.1,0-11.9-4.8-11.9-11.9c0-5.7,2.4-9.5,6.7-11.9
	c2.4-1,4.8-1.4,7.1-1.4c7.1,0,11.9,4.3,11.9,11C370.6,453.3,364.4,459.1,356.3,459.1 M357.3,436.2c-3.8,0-6.7,1.9-8.1,4.8
	c-0.5,1.4-1,3.3-1,5.2c0,4.3,1.4,7.1,4.3,9.1c1.4,1,3.3,1.4,5.2,1.4c5.2,0,9.1-4.3,9.1-10.5c0-3.8-1.4-6.7-4.8-8.6
	C360.6,436.7,359.2,436.2,357.3,436.2 M403,457.1c0.5,0,1.4,0,1.4-1v-11.4v-8.1c0,0-0.5,0-2.9,0c-1.4,0-3.3,0-3.3,0
	c-1.4,0-1.9,1.9-1.9,1.9l-1-0.5l1.4-3.8h9.5h10.5l-0.5,3.8h-1c0,0,0-1-0.5-1.4c-0.5-0.5-0.5-0.5-1-0.5c-2.4,0-5.2,0-5.2,0v1
	c0,1.4,0,4.3,0,7.1c0,3.8,0,7.6,0,9.5v2.4c0,0.5,0.5,0.5,1,1c0.5,0,1,0,1.4,0h0.5l-0.5,1.4l0,0c-0.5,0-1.9,0-3.8,0
	c-2.4,0-3.8,0-3.8,0l0,0L403,457.1 M438.3,457.1L438.3,457.1c1,0,1.9,0,1.9-1v-9.1h-0.5c-1,0-3.3,0-6.7,0c-4.8,0-6.7,0-6.7,0v9.1
	c0,0.5,0.5,0.5,1,1c0.5,0,1,0,1.4,0h0.5l-0.5,1.4l0,0c-0.5,0-1.9,0-3.8,0c-2.4,0-4.3,0-4.3,0l0.5-1.4h0.5c0.5,0,1.4,0,1.4-1
	l0.5-11.4l-1.4-8.1c0-1-1-1-1.9-1c-0.5,0-0.5,0-0.5,0l0.5-1.4l0,0c0.5,0,1.9,0,3.8,0c1.9,0,4.3,0,4.3,0l-0.5,1.4c-1,0-1.9,0-1.9,1
	v7.6c0,0,0.5,0,1,0c1.4,0,4.3,0,6.2,0c2.9,0,7.1,0,7.1,0v-7.6c0-1-1-1-1.9-1c-0.5,0-0.5,0-0.5,0l0.5-1.4l0,0c0.5,0,1.9,0,3.8,0
	c1.9,0,4.3,0,4.3,0l-0.5,1.4c-1,0-1.9,0-1.9,1c0,0,0,0.5,0,1c0,1.4-0.5,3.8-0.5,6.7c0,3.3,0,7.6,0.5,10c0,1,0,1.4,0,1.9
	c0,1,1.4,1,1.9,1h0.5l-0.5,1.4l0,0c-0.5,0-1.9,0-3.8,0c-2.4,0-4.3,0-4.3,0l0,0L438.3,457.1 M498.8,460.5c0,0,1.4-1,2.9-2.4
	c1.4-1.4,6.7-7.6,8.6-10.5l1-1c-0.5-0.5-0.5-1-1-1c-0.5-0.5-1-1.4-1.4-1.9c-0.5-1-1.4-1.9-1.9-3.3c-2.9-4.3-3.3-4.8-5.7-4.8l0.5-1.4
	h2.4c0.5,0,2.9,0,2.9,0s3.8,5.7,5.7,8.6l1,1c0,0,0.5-0.5,0.5-1c1-1.4,1.9-2.9,3.3-4.3s2.4-3.3,2.9-3.3c0.5-0.5,0.5-1,0.5-1l0,0
	c0.5,0,1.4,0,1.9,0c1,0,2.4,0,2.4,0s-1.4,1-2.4,2.4l-1.9,2.4c-1.4,1.9-3.8,4.8-5.2,6.7l-0.5,0.5v0.5c0,0.5,0.5,0.5,0.5,0.5
	c1,1.4,4.3,6.7,6.2,9.1c0.5,0.5,0.5,1,0.5,1s0,0,0.5-0.5l4.3-9.1l5.7-13.3h2.9c0,0,1.4,3.3,4.3,9.5c3.3,7.1,4.8,9.5,6.2,12.9
	c0.5,0.5,1,1,2.4,1l0.5-4.8h1.9l0.5,1.9c0,0.5,1.9,1.4,4.3,1.4c1.4,0,2.9-0.5,3.8-1.4c0.5-1,1-1.4,1-2.9c0-2.4-1.9-3.8-6.2-4.3
	c-4.3-0.5-6.7-2.4-6.7-5.7c0-1.4,0.5-3.3,1.4-4.3c1.9-2.4,4.8-3.8,8.1-3.8c1,0,2.4,0,3.3,0.5c1.4,0.5,1.9,1,1.9,1.4l-0.5,4.8h-1.9
	l-0.5-1.9c0-0.5-1.9-1.4-4.3-1.4c-2.9,0-4.3,1.4-4.8,3.8c0,2.9,1.9,4.3,6.2,4.8c4.3,0.5,6.7,2.4,6.7,5.7c0,1.4-0.5,3.3-1.4,4.3
	c-1.9,2.4-4.8,3.8-8.1,3.8c-1,0-2.4,0-3.3-0.5h-1v0.5l0,0c-0.5,0-2.4,0-3.8,0c-1.4,0-2.4,0-2.4,0l-4.3-9.1c0,0,0,0-0.5,0
	s-2.4,0-4.8,0c-3.3,0-4.3,0-4.3,0l-1,1.9c-1,1.9-1.4,3.3-1.9,4.3c0,0.5,0,0.5,0,1c0.5,0.5,1.4,0.5,1.9,0.5l-0.5,1.4l0,0
	c-1,0-4.3,0-5.7,0c-1.9,0-3.3,0-3.3,0c-1.4-1.9-3.3-5.2-4.8-7.1l-1-1.4l-0.5-0.5l-0.5,0.5l-2.9,3.3c-2.4,2.9-4.8,6.2-5.2,6.7
	c-0.5,1-0.5,1-0.5,1L498.8,460.5L498.8,460.5 M530.3,447.1c0.5,0,1.9,0,3.3,0c1.9,0,3.8,0,3.8,0l-1.4-3.3l-1-2.9c-0.5-1-1-1.9-1-2.4
	C533.6,440,530.8,447.1,530.3,447.1L530.3,447.1 M466.9,457.1c0.5,0,1.4,0,1.4-1v-11.4v-8.1c0,0-0.5,0-2.9,0c-1.4,0-3.3,0-3.3,0
	c-1.4,0-1.9,1.9-1.9,1.9l-1-0.5l1.4-3.8h9.5h10.5l-0.5,3.8h-1c0,0,0-1-0.5-1.4c-0.5-0.5-0.5-0.5-1-0.5c-2.4,0-5.2,0-5.2,0v1
	c0,1.4,0,4.3,0,7.1c0,3.8,0,7.6,0,9.5v1.9c0,0.5,0.5,0.5,1,1c0.5,0,1,0,1.4,0h-0.5l-0.5,1.4l0,0c-0.5,0-1.9,0-3.8,0
	c-2.4,0-3.8,0-3.8,0l0,0L466.9,457.1 M497.4,459.1h-2.9c-2.4,0-5.2,0-7.1,0c-1.4,0-4.3,0-4.3,0l0.5-1.4c0,0,0.5,0,1-0.5
	c0.5-0.5,1-1,1-1.4s0-1,0-2.4c0-2.4,0-5.7,0-8.6c0-2.4,0-4.8,0-6.2v-1.4c0-1-1.4-1-1.9-1c-0.5,0-0.5,0-0.5,0l0.5-1.4l0,0
	c0.5,0,2.4,0,3.8,0c2.9,0,8.6,0,8.6,0c1.9,0,2.9,0.5,2.9,0.5s0,1.4,0,2.4v1l-1.4,1c0-1.4-0.5-2.4-3.8-2.4h-3.8c0,0,0,0.5,0,1.9v6.2
	h0.5h3.3h5.2l-1,2.9c0,0,0,0-0.5,0s-2.4,0-3.8,0s-2.4,0-3.3,0h-0.5c0,1,0,4.3,0,4.3v0.5c0,1.9,0,3.3,0,4.3h0.5c1,0,2.4,0,3.8,0
	s1.9,0,3.3,0v-3.3l1.9,1.4v2.9c0,1,0,1.4,0,1.4l0,0l0,0L497.4,459.1 M569.4,435.7c0-1-0.5-1-1.4-1h-1.4v4.3h0.5v-1.9h1l1,1.9l0,0
	h0.5l-1.4-1.9C568.9,436.7,569.4,436.2,569.4,435.7z M567,434.7h1c0.5,0,1,0,1,1c0,0.5-0.5,1-1.4,1h-1v-1.9H567z M567.5,433.3
	c-1.9,0-3.3,1.4-3.3,3.8c0,1.9,1.4,3.8,3.3,3.8s3.3-1.4,3.3-3.8C571.3,434.7,569.9,433.3,567.5,433.3z M567.5,439.5
	c-1.9,0-2.9-1.4-2.9-3.3s1.4-3.3,2.9-3.3s2.9,1.4,2.9,3.3C570.8,438.6,569.4,439.5,567.5,439.5z"/>
</svg>
