<?xml version="1.0" encoding="utf-8"?>
<!-- Generator: Adobe Illustrator 26.0.3, SVG Export Plug-In . SVG Version: 6.00 Build 0)  -->
<svg version="1.1" id="Layer_1" xmlns="http://www.w3.org/2000/svg" xmlns:xlink="http://www.w3.org/1999/xlink" x="0px" y="0px"
	 viewBox="0 0 96.8 37.8" style="enable-background:new 0 0 96.8 37.8;" xml:space="preserve">
<style type="text/css">
	.st0{fill:#007A33;}
</style>
<g id="UNT_Diving_Eagle_Side-by-Side" transform="translate(-21.401 -16)">
	<g id="Eagle">
		<g>
			<path class="st0" d="M54.4,48c-0.3-0.1-0.8,0.1-0.8,0.1c-0.1-0.7-0.9-1.7-0.9-1.7S54.4,47.9,54.4,48c0-0.1,0.6-1.1-0.5-2.1
				c-1.5-1.5-4.5-4.1-4.5-4.1c0.2,0.7,1.4,2.8,0.8,6.8l1.5,0.3l0.2,0.3c0,0,1.7,0.2,2,0.5c0,0,0.6,0.4-0.1,1c0,0,1-0.2,1.5-0.8
				c0,0,0.5-0.4-0.1-1L54.4,48"/>
		</g>
		<g>
			<path class="st0" d="M46.3,38.6L24.4,18.3c-1-1-0.6-2.3-0.6-2.3L22,19.9c-0.5,1.3,0.2,2,0.8,2.4c0.5,0.4,17.4,14.1,17.4,14.1V37
				L23.4,24.1c-0.8-0.6-0.7-1.7-0.7-1.7l-1.2,2.5c-0.6,1.4,0.8,2.3,1.5,2.7c0.6,0.5,17.3,12.2,17.3,12.2l0.1,0.7
				c0,0-16.2-10.8-16.8-11.2c-0.7-0.4-0.7-1.5-0.7-1.5l-1.2,2.5c-0.5,1,0.9,1.7,1.5,2.2c0.4,0.3,9.5,5.7,17,10.1h-9.7
				c-1.4,0-1.9-0.4-1.9-0.4l1.3,1.2c0.2,0.2,0.8,0.9,1.7,0.9c0.6,0,3.6,0,3.6,0l0.7,0.3l-3.2,0.2c-0.6,0-0.8,0.1-1.6-0.3l1.4,1.3
				c0.4,0.3,0.7,0.6,1.4,0.6c0.7-0.1,4.6-0.7,4.6-0.7l0.6,0.3L35,46.9c-0.9,0.2-1.6-0.3-1.6-0.3s0.8,0.8,1.3,1.3
				c0.6,0.5,1,0.8,2.7,0.3c0.7-0.2,4-1.3,4-1.3l2.2,0.9c2.2,3,4.9,4.6,4.9,4.6c-0.5,0.7-0.1,1.4-0.1,1.4c0.4-0.9,1.5-1.4,2.2-1.3
				c0.6,0.1,0.5,0.9,0.5,0.8c0.4-0.5,0.8-1.1,0.3-1.7c-0.5-0.6-1.7-0.1-1.7-0.1l-1.3-2.2l1.7-1C51,42.6,46.3,38.6,46.3,38.6"/>
		</g>
		<path class="st0" d="M45.1,30.2c-0.3-0.3-10.4-11.7-10.4-11.7c-0.9-1-0.6-1.7-0.6-1.8l-1.2,2.7c-0.3,0.7,0.2,1.2,0.6,1.6
			c0.4,0.4,11,11.5,11,11.5l-0.1,0.6l-10-10c-0.8-0.8-0.6-1.5-0.6-1.5l-1,2.4c-0.2,0.8,0.6,1.3,1,1.7c0.6,0.6,11.8,11,12.7,11.9
			c2,1.8,2.9,4.1,2.9,4.1C50.6,36,46.2,31.5,45.1,30.2"/>
	</g>
	<g id="UNT">
		<path id="Path_1179" class="st0" d="M100.4,22.2L98.3,28h3.2l0.8-2.2h3.1v15.9h-1.7l-1.3,3.7h8.9l1.3-3.7h-2.5V25.8h3.7V28h2.2
			l2.2-5.8L100.4,22.2"/>
		<path id="Path_1180_1_" class="st0" d="M63.3,25.8h2.3v10.4c0,1.9-0.3,3-1.3,4c-0.9,0.8-2.1,1.3-3.3,1.2c-1.4,0.1-2.8-0.5-3.8-1.4
			c-0.8-0.9-1.3-2.3-1.3-4.4V22.2h-6.5L48,25.8h2.8v9.9c0,9.4,7.3,10.1,9.5,10.1c5.8,0,9.5-3.7,9.5-9.5V25.7h1.6l1.3-3.5h-8.2"/>
		<path id="Path_1181" class="st0" d="M96.3,25.8v19.6h-2.7c0,0-12.8-13.5-13.6-14.3v10.7h2.5l-1.3,3.6h-8.3l1.3-3.6h1.4v-16h-2.9
			l1.3-3.6h5.1c0,0,9.7,10.2,13.2,13.8V25.9h-2.5l1.3-3.7h8.4l-1.3,3.7L96.3,25.8"/>
	</g>
</g>
</svg>
